<svg xmlns:rdf="http://www.w3.org/1999/02/22-rdf-syntax-ns#" xmlns="http://www.w3.org/2000/svg" version="1.1" xmlns:cc="http://creativecommons.org/ns#" xmlns:dc="http://purl.org/dc/elements/1.1/" viewBox="0 0 196 30">
 <title>Artboard</title>
 <desc>Created with Sketch.</desc>
 <g id="Artboard" fill="none">
  <rect id="Rectangle" rx="7.9467" height="30" width="196" y="0" x="0" fill="#ff5e5b"/>
  <g id="Group" transform="translate(24,7)">
   <path fill="#fff" d="m17.418 0h1.6076c3.1 0 5.614 2.5137 5.614 5.6145v0.33001c0 3.1008-2.5137 5.6145-5.6145 5.6145h-1.6076v1.6898c0 1.4311-1.1602 2.5913-2.5913 2.5913h-12.235c-1.4318 0-2.592-1.16-2.592-2.591v-11.953c0-0.71592 0.58008-1.296 1.2956-1.296h16.122zm0 2.9968v5.5654h1.4656c1.5368 0 2.7827-1.2459 2.7827-2.7827s-1.2459-2.7827-2.7827-2.7827h-1.4656z"/>
   <path fill="#ff5e5b" d="m8.36 5.2768c0.4003-1.1712 1.3489-1.7568 2.846-1.7568 2.2455 0 3.078 2.7937 1.9009 4.62-0.785 1.2176-2.367 2.758-4.747 4.62-2.3799-1.862-3.9622-3.4024-4.7469-4.62-1.177-1.8263-0.3445-4.62 1.901-4.62 1.497 0 2.4456 0.5856 2.8459 1.7568z"/>
  </g>
  <path id="SupportmeonKo-f" d="m66.2 19.14c-0.672 0-1.2693-0.084-1.792-0.252-0.52267-0.168-1.0127-0.45266-1.47-0.854-0.252-0.224-0.378-0.47133-0.378-0.742 0-0.21467 0.07933-0.40367 0.238-0.567s0.35-0.245 0.574-0.245c0.17733 0 0.336 0.056 0.476 0.168 0.37334 0.308 0.73733 0.532 1.092 0.672s0.77466 0.21 1.26 0.21c0.52267 0 0.973-0.11666 1.351-0.35 0.378-0.23333 0.567-0.52266 0.567-0.868 0-0.42-0.18666-0.749-0.56-0.987s-0.966-0.41767-1.778-0.539c-2.044-0.29867-3.066-1.2507-3.066-2.856 0-0.588 0.154-1.099 0.462-1.533s0.728-0.76533 1.26-0.994 1.1247-0.343 1.778-0.343c0.588 0 1.141 0.088666 1.659 0.266s0.94966 0.41067 1.295 0.7c0.27067 0.21467 0.406 0.462 0.406 0.742 0 0.21467-0.07933 0.40367-0.238 0.567s-0.34533 0.245-0.56 0.245c-0.14 0-0.266-0.042-0.378-0.126-0.24267-0.196-0.581-0.37567-1.015-0.539s-0.82366-0.245-1.169-0.245c-0.588 0-1.043 0.10967-1.365 0.329s-0.483 0.50633-0.483 0.861c0 0.40134 0.16566 0.70467 0.497 0.91s0.85166 0.37333 1.561 0.504c0.80267 0.14 1.4443 0.31967 1.925 0.539 0.48067 0.21933 0.84233 0.518 1.085 0.896s0.364 0.87966 0.364 1.505c0 0.588-0.16566 1.1037-0.497 1.547-0.33134 0.44334-0.77233 0.784-1.323 1.022s-1.1433 0.357-1.778 0.357zm10.626-7.63c0.24267 0 0.44333 0.08167 0.602 0.245s0.238 0.36633 0.238 0.609v3.556c0 1.008-0.27766 1.7967-0.833 2.366-0.55534 0.56934-1.3463 0.854-2.373 0.854s-1.8153-0.28466-2.366-0.854c-0.55067-0.56934-0.826-1.358-0.826-2.366v-3.556c0-0.24267 0.07933-0.44567 0.238-0.609s0.35933-0.245 0.602-0.245 0.44333 0.08167 0.602 0.245 0.238 0.36633 0.238 0.609v3.556c0 0.56934 0.126 0.99166 0.378 1.267s0.63 0.413 1.134 0.413c0.51334 0 0.896-0.13766 1.148-0.413s0.378-0.69766 0.378-1.267v-3.556c0-0.24267 0.07933-0.44567 0.238-0.609s0.35933-0.245 0.602-0.245zm6.538-0.14c0.644 0 1.2273 0.16566 1.75 0.497 0.52267 0.33134 0.93566 0.791 1.239 1.379s0.455 1.2553 0.455 2.002c0 0.74667-0.14933 1.4163-0.448 2.009-0.29867 0.59267-0.707 1.0547-1.225 1.386-0.518 0.33134-1.0897 0.497-1.715 0.497-0.448 0-0.87033-0.091-1.267-0.273s-0.72566-0.40366-0.987-0.665v2.744c0 0.24267-0.07933 0.44567-0.238 0.609s-0.35933 0.245-0.602 0.245-0.44333-0.07933-0.602-0.238-0.238-0.364-0.238-0.616v-8.582c0-0.24267 0.07933-0.44567 0.238-0.609s0.35933-0.245 0.602-0.245 0.44333 0.08167 0.602 0.245 0.238 0.36633 0.238 0.609v0.056c0.224-0.28 0.53666-0.525 0.938-0.735s0.82133-0.315 1.26-0.315zm-0.21 6.23c0.59734 0 1.0873-0.224 1.47-0.672 0.38267-0.448 0.574-1.008 0.574-1.68s-0.189-1.2297-0.567-1.673c-0.378-0.44334-0.87033-0.665-1.477-0.665s-1.1013 0.22166-1.484 0.665c-0.38267 0.44334-0.574 1.001-0.574 1.673s0.19133 1.232 0.574 1.68 0.87733 0.672 1.484 0.672zm8.932-6.23c0.644 0 1.2273 0.16566 1.75 0.497 0.52267 0.33134 0.93566 0.791 1.239 1.379s0.455 1.2553 0.455 2.002c0 0.74667-0.14933 1.4163-0.448 2.009-0.29867 0.59267-0.707 1.0547-1.225 1.386-0.518 0.33134-1.0897 0.497-1.715 0.497-0.448 0-0.87033-0.091-1.267-0.273s-0.72566-0.40366-0.987-0.665v2.744c0 0.24267-0.07933 0.44567-0.238 0.609s-0.35933 0.245-0.602 0.245-0.44333-0.07933-0.602-0.238-0.238-0.364-0.238-0.616v-8.582c0-0.24267 0.07933-0.44567 0.238-0.609s0.35933-0.245 0.602-0.245 0.44333 0.08167 0.602 0.245 0.238 0.36633 0.238 0.609v0.056c0.224-0.28 0.53666-0.525 0.938-0.735s0.82133-0.315 1.26-0.315zm-0.21 6.23c0.59734 0 1.0873-0.224 1.47-0.672 0.38267-0.448 0.574-1.008 0.574-1.68s-0.189-1.2297-0.567-1.673c-0.378-0.44334-0.87033-0.665-1.477-0.665s-1.1013 0.22166-1.484 0.665c-0.38267 0.44334-0.574 1.001-0.574 1.673s0.19133 1.232 0.574 1.68 0.87733 0.672 1.484 0.672zm12.25-2.338c0 0.74667-0.168 1.4163-0.504 2.009-0.336 0.59267-0.79566 1.0523-1.379 1.379-0.58334 0.32667-1.225 0.49-1.925 0.49-0.70934 0-1.3533-0.16333-1.932-0.49-0.57867-0.32667-1.036-0.78633-1.372-1.379s-0.504-1.2623-0.504-2.009c0-0.74667 0.168-1.4163 0.504-2.009 0.336-0.59267 0.79333-1.0547 1.372-1.386 0.57867-0.33134 1.2227-0.497 1.932-0.497 0.7 0 1.3417 0.16566 1.925 0.497 0.58334 0.33134 1.043 0.79333 1.379 1.386s0.504 1.2623 0.504 2.009zm-1.68 0c0-0.45734-0.0957-0.86566-0.287-1.225-0.19133-0.35934-0.448-0.637-0.77-0.833s-0.679-0.294-1.071-0.294-0.749 0.098-1.071 0.294-0.57867 0.47366-0.77 0.833-0.287 0.76766-0.287 1.225 0.09567 0.86333 0.287 1.218 0.448 0.63 0.77 0.826 0.679 0.294 1.071 0.294 0.749-0.098 1.071-0.294 0.57867-0.47133 0.77-0.826 0.287-0.76066 0.287-1.218zm6.972-3.892c0.28 0 0.51567 0.07933 0.707 0.238s0.287 0.34533 0.287 0.56c0 0.28934-0.0747 0.50633-0.224 0.651-0.14933 0.14467-0.32667 0.217-0.532 0.217-0.14 0-0.29867-0.03267-0.476-0.098-0.028-0.0093-0.091-0.028-0.189-0.056s-0.203-0.042-0.315-0.042c-0.24267 0-0.476 0.07467-0.7 0.224s-0.40833 0.37566-0.553 0.679-0.217 0.665-0.217 1.085v3.318c0 0.24267-0.0793 0.44567-0.238 0.609-0.15867 0.16333-0.35933 0.245-0.602 0.245s-0.44333-0.08167-0.602-0.245-0.238-0.36633-0.238-0.609v-5.782c0-0.24267 0.0793-0.44567 0.238-0.609 0.15867-0.16333 0.35933-0.245 0.602-0.245s0.44333 0.08167 0.602 0.245 0.238 0.36633 0.238 0.609v0.182c0.21467-0.38267 0.52267-0.67433 0.924-0.875 0.40134-0.20067 0.83066-0.301 1.288-0.301zm5.796 6.048c0.13067 0 0.24967 0.063 0.357 0.189s0.161 0.29167 0.161 0.497c0 0.252-0.13766 0.46433-0.413 0.637-0.27533 0.17267-0.58567 0.259-0.931 0.259-0.57867 0-1.0663-0.12366-1.463-0.371-0.39667-0.24734-0.595-0.77233-0.595-1.575v-3.864h-0.644c-0.224 0-0.41067-0.07467-0.56-0.224s-0.224-0.336-0.224-0.56c0-0.21467 0.0747-0.39433 0.224-0.539 0.14933-0.14467 0.336-0.217 0.56-0.217h0.644v-0.896c0-0.24267 0.0817-0.44567 0.245-0.609 0.16333-0.16333 0.36633-0.245 0.609-0.245 0.23333 0 0.42933 0.081666 0.588 0.245s0.238 0.36633 0.238 0.609v0.896h0.994c0.224 0 0.41067 0.07467 0.56 0.224s0.224 0.336 0.224 0.56c0 0.21467-0.0747 0.39433-0.224 0.539-0.14933 0.14467-0.336 0.217-0.56 0.217h-0.994v3.794c0 0.196 0.0513 0.33833 0.154 0.427 0.10267 0.08867 0.24267 0.133 0.42 0.133 0.0747 0 0.17733-0.01867 0.308-0.056 0.112-0.04667 0.21933-0.07 0.322-0.07zm14.178-2.156c0 0.74667-0.168 1.4163-0.504 2.009-0.336 0.59267-0.79566 1.0523-1.379 1.379-0.58334 0.32667-1.225 0.49-1.925 0.49-0.70934 0-1.3533-0.16333-1.932-0.49-0.57867-0.32667-1.036-0.78633-1.372-1.379s-0.504-1.2623-0.504-2.009c0-0.74667 0.168-1.4163 0.504-2.009 0.336-0.59267 0.79333-1.0547 1.372-1.386 0.57867-0.33134 1.2227-0.497 1.932-0.497 0.7 0 1.3417 0.16566 1.925 0.497 0.58334 0.33134 1.043 0.79333 1.379 1.386s0.504 1.2623 0.504 2.009zm-1.68 0c0-0.45734-0.0957-0.86566-0.287-1.225-0.19133-0.35934-0.448-0.637-0.77-0.833s-0.679-0.294-1.071-0.294-0.749 0.098-1.071 0.294-0.57867 0.47366-0.77 0.833-0.287 0.76766-0.287 1.225 0.0957 0.86333 0.287 1.218c0.19133 0.35467 0.448 0.63 0.77 0.826s0.679 0.294 1.071 0.294 0.749-0.098 1.071-0.294 0.57867-0.47133 0.77-0.826 0.287-0.76066 0.287-1.218zm7.084-3.892c0.952 0 1.61 0.28233 1.974 0.847s0.546 1.3463 0.546 2.345v3.584c0 0.24267-0.0793 0.44567-0.238 0.609-0.15867 0.16333-0.35933 0.245-0.602 0.245s-0.44333-0.08167-0.602-0.245-0.238-0.36633-0.238-0.609v-3.584c0-0.51334-0.10733-0.917-0.322-1.211s-0.58333-0.441-1.106-0.441c-0.54134 0-0.966 0.15633-1.274 0.469s-0.462 0.707-0.462 1.183v3.584c0 0.24267-0.0793 0.44567-0.238 0.609-0.15867 0.16333-0.35933 0.245-0.602 0.245s-0.44333-0.08167-0.602-0.245-0.238-0.36633-0.238-0.609v-5.782c0-0.24267 0.0793-0.44567 0.238-0.609 0.15867-0.16333 0.35933-0.245 0.602-0.245s0.44333 0.08167 0.602 0.245 0.238 0.36633 0.238 0.609v0.238c0.252-0.336 0.581-0.62533 0.987-0.868s0.85166-0.364 1.337-0.364zm15.904 6.174c0.056 0.07467 0.10267 0.16567 0.14 0.273 0.0373 0.10733 0.056 0.20767 0.056 0.301 0 0.252-0.0957 0.462-0.287 0.63-0.19133 0.168-0.413 0.252-0.665 0.252-0.12133 0-0.238-0.028-0.35-0.084s-0.20533-0.13533-0.28-0.238l-3.038-4.004-1.33 1.274v2.198c0 0.252-0.0817 0.45733-0.245 0.616-0.16333 0.15867-0.37567 0.238-0.637 0.238-0.252 0-0.45967-0.08167-0.623-0.245s-0.245-0.36633-0.245-0.609v-8.092c0-0.24267 0.084-0.44567 0.252-0.609s0.38266-0.245 0.644-0.245c0.252 0 0.45733 0.079333 0.616 0.238s0.238 0.364 0.238 0.616v3.808l4.48-4.41c0.21467-0.21467 0.44333-0.322 0.686-0.322 0.21467 0 0.39667 0.088666 0.546 0.266s0.224 0.364 0.224 0.56-0.084 0.378-0.252 0.546l-3.052 2.912zm8.722-2.282c0 0.74667-0.168 1.4163-0.504 2.009-0.336 0.59267-0.79566 1.0523-1.379 1.379-0.58334 0.32667-1.225 0.49-1.925 0.49-0.70934 0-1.3533-0.16333-1.932-0.49-0.57867-0.32667-1.036-0.78633-1.372-1.379s-0.504-1.2623-0.504-2.009c0-0.74667 0.168-1.4163 0.504-2.009 0.336-0.59267 0.79333-1.0547 1.372-1.386 0.57867-0.33134 1.2227-0.497 1.932-0.497 0.7 0 1.3417 0.16566 1.925 0.497 0.58334 0.33134 1.043 0.79333 1.379 1.386s0.504 1.2623 0.504 2.009zm-1.68 0c0-0.45734-0.0957-0.86566-0.287-1.225-0.19133-0.35934-0.448-0.637-0.77-0.833s-0.679-0.294-1.071-0.294-0.749 0.098-1.071 0.294-0.57867 0.47366-0.77 0.833-0.287 0.76766-0.287 1.225 0.0957 0.86333 0.287 1.218c0.19133 0.35467 0.448 0.63 0.77 0.826s0.679 0.294 1.071 0.294 0.749-0.098 1.071-0.294 0.57867-0.47133 0.77-0.826 0.287-0.76066 0.287-1.218zm3.724 0.28c-0.24267 0-0.44567-0.07933-0.609-0.238s-0.245-0.35933-0.245-0.602c0-0.23333 0.0817-0.42933 0.245-0.588 0.16333-0.15867 0.36633-0.238 0.609-0.238h2.436c0.24267 0 0.44567 0.08167 0.609 0.245s0.245 0.36633 0.245 0.609c0 0.23334-0.0817 0.427-0.245 0.581-0.16333 0.154-0.36633 0.231-0.609 0.231zm8.498-5.418c-0.31733 0-0.54133 0.091-0.672 0.273s-0.196 0.38033-0.196 0.595v0.658h1.274c0.224 0 0.41067 0.07233 0.56 0.217s0.224 0.329 0.224 0.553-0.0747 0.40833-0.224 0.553c-0.14933 0.14467-0.336 0.217-0.56 0.217h-1.274v4.956c0 0.24267-0.0793 0.44567-0.238 0.609-0.15867 0.16333-0.35933 0.245-0.602 0.245s-0.44333-0.08167-0.602-0.245-0.238-0.36633-0.238-0.609v-4.956h-0.756c-0.224 0-0.41067-0.07233-0.56-0.217s-0.224-0.329-0.224-0.553 0.0747-0.40833 0.224-0.553c0.14933-0.14467 0.336-0.217 0.56-0.217h0.756v-0.644c0-0.7 0.24033-1.2693 0.721-1.708 0.48067-0.43867 1.1737-0.658 2.079-0.658 0.34534 0 0.64633 0.069999 0.903 0.21s0.385 0.35467 0.385 0.644c0 0.224-0.0653 0.406-0.196 0.546-0.13067 0.14-0.28933 0.21-0.476 0.21-0.0467 0-0.0957-0.0047-0.147-0.014s-0.105-0.01867-0.161-0.028c-0.224-0.056-0.41067-0.084-0.56-0.084zm3.822 8.022c0 0.24267-0.0793 0.44567-0.238 0.609-0.15867 0.16333-0.35933 0.245-0.602 0.245s-0.44333-0.08167-0.602-0.245-0.238-0.36633-0.238-0.609v-5.782c0-0.24267 0.0793-0.44567 0.238-0.609 0.15867-0.16333 0.35933-0.245 0.602-0.245s0.44333 0.08167 0.602 0.245 0.238 0.36633 0.238 0.609zm-0.85-7.546c-0.31734 0-0.54133-0.05133-0.672-0.154s-0.196-0.28466-0.196-0.546v-0.266c0-0.26133 0.07-0.44333 0.21-0.546s0.364-0.154 0.672-0.154c0.32667 0 0.55533 0.051333 0.686 0.154s0.196 0.28467 0.196 0.546v0.266c0 0.27067-0.0677 0.455-0.203 0.553-0.13533 0.098-0.36633 0.147-0.693 0.147z" fill="#fff"/>
 </g>
</svg>
